<svg xmlns="http://www.w3.org/2000/svg" version="1.1" xmlns:xlink="http://www.w3.org/1999/xlink" xmlns:svgjs="http://svgjs.dev/svgjs" width="1000" height="1000" viewBox="0 0 1000 1000"><rect width="1000" height="1000" fill="#ffffff"></rect><g transform="matrix(0.7,0,0,0.7,149.57575788786818,417.76902321148236)"><svg viewBox="0 0 396 93" data-background-color="#ffffff" preserveAspectRatio="xMidYMid meet" height="234" width="1000" xmlns="http://www.w3.org/2000/svg" xmlns:xlink="http://www.w3.org/1999/xlink"><g id="tight-bounds" transform="matrix(1,0,0,1,0.24000017656544514,0.18791726391467023)"><svg viewBox="0 0 395.52 92.62415952246559" height="92.62415952246559" width="395.52"><g><svg viewBox="0 0 541.6817039109226 126.85278254815502" height="92.62415952246559" width="395.52"><g transform="matrix(1,0,0,1,146.16170391092254,17.53175214666976)"><svg viewBox="0 0 395.52 91.7892782548155" height="91.7892782548155" width="395.52"><g id="textblocktransform"><svg viewBox="0 0 395.52 91.7892782548155" height="91.7892782548155" width="395.52" id="textblock"><g><svg viewBox="0 0 395.52 91.7892782548155" height="91.7892782548155" width="395.52"><g transform="matrix(1,0,0,1,0,0)"><svg width="395.52" viewBox="-0.8500000238418579 -36 215.4300079345703 50" height="91.7892782548155" data-palette-color="#24a8df"><path d="M0.85 4.35L0.85 4.35Q-0.25 3.7-0.55 2.98-0.85 2.25-0.85 1.75L-0.85 1.75Q-0.85 0.35 0.18-2.05 1.2-4.45 2.93-7.53 4.65-10.6 6.75-13.9L6.75-13.9Q4.9-14.05 3.6-14.1 2.3-14.15 1.35-14.15L1.35-14.15-0.4-14.15Q0.15-15.6 1.53-16.18 2.9-16.75 4.8-16.75L4.8-16.75Q5.65-16.75 6.55-16.65 7.45-16.55 8.4-16.4L8.4-16.4Q10.95-20.25 13.63-23.88 16.3-27.5 18.63-30.33 20.95-33.15 22.5-34.6L22.5-34.6Q23.95-36 24.9-36L24.9-36Q25.45-36 26.13-35.58 26.8-35.15 27.55-34.4L27.55-34.4Q27.05-34 26.28-32.27 25.5-30.55 24.63-27.95 23.75-25.35 22.9-22.25 22.05-19.15 21.33-15.93 20.6-12.7 20.18-9.8 19.75-6.9 19.75-4.7L19.75-4.7Q19.75-2.8 20.18-1.75 20.6-0.7 21.6-0.7L21.6-0.7Q22.9-0.7 24.55-2.5 26.2-4.3 28.15-8.1L28.15-8.1 28.65-7.6Q27.15-3.6 24.83-1.05 22.5 1.5 20 1.5L20 1.5Q17.95 1.5 17.03-0.33 16.1-2.15 16.1-5.2L16.1-5.2Q16.1-6.8 16.32-8.7 16.55-10.6 16.95-12.65L16.95-12.65Q14.75-13 12.93-13.23 11.1-13.45 9.55-13.65L9.55-13.65Q7.2-9.3 4.98-4.7 2.75-0.1 0.85 4.35ZM17.3-14.4L17.3-14.4Q18.05-17.7 19.05-21.08 20.05-24.45 21.18-27.5 22.3-30.55 23.3-32.85L23.3-32.85Q21.75-31.9 19.73-29.48 17.7-27.05 15.45-23.58 13.2-20.1 10.85-15.95L10.85-15.95Q12.55-15.6 14.23-15.18 15.9-14.75 17.3-14.4ZM43.3 1L43.3 1Q41.55 1 40.67 0.1 39.8-0.8 39.8-2.2L39.8-2.2Q39.8-3.25 40.17-4.4 40.55-5.55 40.9-6.78 41.25-8 41.25-9.15L41.25-9.15Q41.25-10.55 40.67-11.08 40.1-11.6 39.25-11.6L39.25-11.6Q37.7-11.6 36.1-10.33 34.5-9.05 33-7.08 31.5-5.1 30.2-3 28.9-0.9 27.9 0.75L27.9 0.75Q27.1 0.75 26.37 0.48 25.65 0.2 25.25-0.35L25.25-0.35Q25.25-0.6 25.77-1.9 26.3-3.2 27-5.1 27.7-7 28.25-9 28.8-11 28.8-12.65L28.8-12.65Q29.1-13 29.75-13.35 30.4-13.7 31.1-13.7L31.1-13.7Q32.45-13.7 32.45-12.4L32.45-12.4Q32.45-11.6 32-9.73 31.55-7.85 30.85-5.8L30.85-5.8Q32.2-7.85 33.87-9.88 35.55-11.9 37.45-13.25 39.35-14.6 41.25-14.6L41.25-14.6Q43.2-14.6 44.07-13.2 44.95-11.8 44.95-10.1L44.95-10.1Q44.95-8.55 44.45-7.23 43.95-5.9 43.42-4.67 42.9-3.45 42.9-2.2L42.9-2.2Q42.9-1.15 43.32-0.73 43.75-0.3 44.4-0.3L44.4-0.3Q45.65-0.3 46.9-1.48 48.15-2.65 49.32-4.45 50.5-6.25 51.4-8.1L51.4-8.1 51.95-7.45Q50.9-5 49.6-3.1 48.3-1.2 46.75-0.1 45.2 1 43.3 1ZM66.6 1L66.6 1Q64.85 1 63.97 0.1 63.1-0.8 63.1-2.2L63.1-2.2Q63.1-3.25 63.47-4.4 63.85-5.55 64.2-6.78 64.55-8 64.55-9.15L64.55-9.15Q64.55-10.55 63.97-11.08 63.4-11.6 62.55-11.6L62.55-11.6Q61-11.6 59.4-10.33 57.8-9.05 56.3-7.08 54.8-5.1 53.5-3 52.2-0.9 51.2 0.75L51.2 0.75Q50.4 0.75 49.67 0.48 48.95 0.2 48.55-0.35L48.55-0.35Q48.55-0.6 49.07-1.9 49.6-3.2 50.3-5.1 51-7 51.55-9 52.1-11 52.1-12.65L52.1-12.65Q52.4-13 53.05-13.35 53.7-13.7 54.4-13.7L54.4-13.7Q55.75-13.7 55.75-12.4L55.75-12.4Q55.75-11.6 55.3-9.73 54.85-7.85 54.15-5.8L54.15-5.8Q55.5-7.85 57.17-9.88 58.85-11.9 60.75-13.25 62.65-14.6 64.55-14.6L64.55-14.6Q66.5-14.6 67.37-13.2 68.25-11.8 68.25-10.1L68.25-10.1Q68.25-8.55 67.75-7.23 67.25-5.9 66.72-4.67 66.2-3.45 66.2-2.2L66.2-2.2Q66.2-1.15 66.62-0.73 67.05-0.3 67.7-0.3L67.7-0.3Q68.95-0.3 70.2-1.48 71.45-2.65 72.62-4.45 73.8-6.25 74.7-8.1L74.7-8.1 75.25-7.45Q74.2-5 72.9-3.1 71.6-1.2 70.05-0.1 68.5 1 66.6 1ZM76.14 2.35L76.14 2.35Q74.59 2.35 73.52 1.33 72.44 0.3 72.44-1.8L72.44-1.8Q72.44-3.6 73.24-5.68 74.04-7.75 75.44-9.78 76.84-11.8 78.62-13.48 80.39-15.15 82.37-16.15 84.34-17.15 86.29-17.15L86.29-17.15Q88.24-17.15 89.54-16.13 90.84-15.1 90.84-13.4L90.84-13.4Q90.84-12.15 90.17-11.7 89.49-11.25 88.39-11.25L88.39-11.25Q88.49-11.65 88.57-12.13 88.64-12.6 88.64-13L88.64-13Q88.64-14.15 88.09-14.98 87.54-15.8 86.19-15.8L86.19-15.8Q84.79-15.8 83.34-14.83 81.89-13.85 80.54-12.23 79.19-10.6 78.14-8.7 77.09-6.8 76.49-4.95 75.89-3.1 75.89-1.65L75.89-1.65Q75.89 0.3 77.24 0.3L77.24 0.3Q78.39 0.3 79.74-0.78 81.09-1.85 82.52-3.53 83.94-5.2 85.24-7 86.54-8.8 87.54-10.3L87.54-10.3Q87.74-10.6 87.79-10.6L87.79-10.6Q88.09-10.55 88.57-10.4 89.04-10.25 89.39-10 89.74-9.75 89.74-9.35L89.74-9.35Q89.74-8.9 89.29-8.13 88.84-7.35 88.29-6.35 87.74-5.35 87.29-4.33 86.84-3.3 86.84-2.4L86.84-2.4Q86.84-1.65 87.24-0.93 87.64-0.2 88.54-0.2L88.54-0.2Q89.89-0.2 92.09-2.18 94.29-4.15 96.54-8.1L96.54-8.1 97.04-7.6Q95.99-4.9 94.34-2.85 92.69-0.8 90.82 0.35 88.94 1.5 87.14 1.5L87.14 1.5Q85.29 1.5 84.42 0.4 83.54-0.7 83.54-2L83.54-2Q83.54-2.3 83.59-2.68 83.64-3.05 83.69-3.45L83.69-3.45Q81.54-0.55 79.77 0.9 77.99 2.35 76.14 2.35ZM116.69 4.35L116.69 4.35Q115.14 4.35 113.74 3.93 112.34 3.5 111.34 2.1L111.34 2.1Q111.84-0.3 112.56-3.08 113.29-5.85 114.14-8.78 114.99-11.7 115.86-14.53 116.74-17.35 117.54-19.8 118.34-22.25 118.99-24.1 119.64-25.95 119.99-26.9L119.99-26.9Q120.14-27.3 120.49-28.08 120.84-28.85 121.34-29.65 121.84-30.45 122.49-31.03 123.14-31.6 123.89-31.6L123.89-31.6Q124.59-31.6 125.29-31.1L125.29-31.1Q123.74-27.5 122.16-23.15 120.59-18.8 119.14-14.18 117.69-9.55 116.49-5.15 115.29-0.75 114.49 2.85L114.49 2.85Q115.19 2.95 115.66 3 116.14 3.05 116.64 3.05L116.64 3.05Q119.84 3.05 122.81 1.58 125.79 0.1 128.36-2.48 130.94-5.05 132.89-8.38 134.84-11.7 135.91-15.43 136.99-19.15 136.99-22.85L136.99-22.85Q136.99-26.9 135.69-29.53 134.39-32.15 132.09-33.4 129.79-34.65 126.74-34.65L126.74-34.65Q123.49-34.65 120.89-33.35 118.29-32.05 116.79-29.85 115.29-27.65 115.29-24.9L115.29-24.9Q115.29-24.3 115.36-23.85 115.44-23.4 115.54-23.05L115.54-23.05Q113.89-23.05 113.21-23.88 112.54-24.7 112.54-25.85L112.54-25.85Q112.54-27.6 113.76-29.38 114.99-31.15 117.16-32.65 119.34-34.15 122.19-35.08 125.04-36 128.24-36L128.24-36Q132.74-36 135.46-34.18 138.19-32.35 139.44-29.25 140.69-26.15 140.69-22.3L140.69-22.3Q140.69-17.95 139.34-13.98 137.99-10 135.61-6.68 133.24-3.35 130.19-0.88 127.14 1.6 123.66 2.98 120.19 4.35 116.69 4.35ZM146.24 2.2L146.24 2.2Q143.19 2.2 141.66 0.53 140.14-1.15 140.14-3.6L140.14-3.6Q140.14-5.85 141.26-8.35 142.39-10.85 144.26-13.05 146.14-15.25 148.39-16.63 150.64-18 152.84-18L152.84-18Q153.99-18 154.96-17.4 155.94-16.8 155.94-14.95L155.94-14.95Q155.94-13.05 154.81-11.38 153.69-9.7 151.86-8.4 150.03-7.1 147.86-6.28 145.69-5.45 143.53-5.25L143.53-5.25Q143.44-4.75 143.39-4.3 143.34-3.85 143.34-3.45L143.34-3.45Q143.34-2.7 143.51-1.95 143.69-1.2 144.14-0.58 144.59 0.05 145.36 0.4 146.14 0.75 147.28 0.75L147.28 0.75Q149.44 0.75 151.53-0.48 153.64-1.7 155.44-3.7 157.24-5.7 158.49-8.1L158.49-8.1 159.09-7.65Q157.74-4.65 155.66-2.45 153.59-0.25 151.16 0.98 148.74 2.2 146.24 2.2ZM143.78-6.2L143.78-6.2Q145.14-6.65 146.84-7.53 148.53-8.4 150.11-9.6 151.69-10.8 152.71-12.25 153.74-13.7 153.74-15.3L153.74-15.3Q153.74-15.85 153.53-16.15 153.34-16.45 152.69-16.45L152.69-16.45Q151.49-16.45 150.14-15.53 148.78-14.6 147.53-13.1 146.28-11.6 145.28-9.8 144.28-8 143.78-6.2ZM154.33 14L154.33 14Q153.93 14 153.56 13.58 153.18 13.15 152.98 12.68 152.78 12.2 152.78 12.1L152.78 12.1Q153.48 9.65 154.16 7.73 154.83 5.8 155.51 3.78 156.18 1.75 156.83-0.98 157.48-3.7 158.18-7.75 158.88-11.8 159.58-17.8L159.58-17.8Q159.63-18.25 159.78-18.45 159.93-18.65 160.53-18.65L160.53-18.65Q161.83-18.65 162.38-17.93 162.93-17.2 162.93-16.35L162.93-16.35Q162.93-15.65 162.63-13.85 162.33-12.05 161.78-9.6L161.78-9.6Q162.63-11.25 163.91-12.95 165.18-14.65 166.83-15.8 168.48-16.95 170.43-16.95L170.43-16.95Q172.63-16.95 174.06-15.38 175.48-13.8 175.48-11.25L175.48-11.25Q175.48-9.3 174.61-7.13 173.73-4.95 172.16-3.03 170.58-1.1 168.43 0.1 166.28 1.3 163.68 1.3L163.68 1.3Q162.38 1.3 161.58 1 160.78 0.7 160.78 0.4L160.78 0.4Q160.78 0.2 161.16 0.18 161.53 0.15 162.03 0.15L162.03 0.15Q164.03 0.15 165.86-0.83 167.68-1.8 169.13-3.4 170.58-5 171.41-6.95 172.23-8.9 172.23-10.8L172.23-10.8Q172.23-12.4 171.56-13.53 170.88-14.65 169.38-14.65L169.38-14.65Q168.08-14.65 166.81-13.83 165.53-13 164.41-11.73 163.28-10.45 162.41-9.08 161.53-7.7 161.08-6.6L161.08-6.6Q160.18-2.85 159.28 0.63 158.38 4.1 157.56 6.93 156.73 9.75 156.06 11.55 155.38 13.35 154.93 13.75L154.93 13.75Q154.68 14 154.33 14ZM181.28 2.3L181.28 2.3Q179.13 2.3 177.98 1.05 176.83-0.2 176.83-2.65L176.83-2.65Q176.83-4.85 177.66-8.08 178.48-11.3 179.73-14.7L179.73-14.7Q179.23-14.8 178.78-14.88 178.33-14.95 177.93-15.1L177.93-15.1 177.93-16Q178.33-15.95 178.88-15.9 179.43-15.85 180.13-15.8L180.13-15.8Q181.18-18.5 182.38-21.03 183.58-23.55 184.76-25.53 185.93-27.5 187.01-28.68 188.08-29.85 188.83-29.85L188.83-29.85Q189.23-29.85 189.56-29.58 189.88-29.3 189.88-28.75L189.88-28.75Q189.88-27.9 188.83-25.98 187.78-24.05 186.23-21.4 184.68-18.75 183.23-15.65L183.23-15.65Q183.68-15.65 184.16-15.65 184.63-15.65 185.08-15.65L185.08-15.65Q186.73-15.65 188.56-15.7 190.38-15.75 192.23-15.95L192.23-15.95 192.23-15.05Q189.48-14.75 187.31-14.6 185.13-14.45 183.43-14.45L183.43-14.45Q183.23-14.45 183.06-14.45 182.88-14.45 182.68-14.45L182.68-14.45Q181.53-11.8 180.73-9 179.93-6.2 179.93-3.55L179.93-3.55Q179.93-1.4 180.58-0.48 181.23 0.45 182.73 0.45L182.73 0.45Q185.33 0.45 187.83-1.85 190.33-4.15 192.23-8.1L192.23-8.1 192.88-7.6Q191.68-4.8 189.86-2.55 188.03-0.3 185.83 1 183.63 2.3 181.28 2.3ZM193.68 2.35L193.68 2.35Q192.13 2.35 191.05 1.33 189.98 0.3 189.98-1.8L189.98-1.8Q189.98-3.6 190.78-5.68 191.58-7.75 192.98-9.78 194.38-11.8 196.15-13.48 197.93-15.15 199.9-16.15 201.88-17.15 203.83-17.15L203.83-17.15Q205.78-17.15 207.08-16.13 208.38-15.1 208.38-13.4L208.38-13.4Q208.38-12.15 207.7-11.7 207.03-11.25 205.93-11.25L205.93-11.25Q206.03-11.65 206.1-12.13 206.18-12.6 206.18-13L206.18-13Q206.18-14.15 205.63-14.98 205.08-15.8 203.73-15.8L203.73-15.8Q202.33-15.8 200.88-14.83 199.43-13.85 198.08-12.23 196.73-10.6 195.68-8.7 194.63-6.8 194.03-4.95 193.43-3.1 193.43-1.65L193.43-1.65Q193.43 0.3 194.78 0.3L194.78 0.3Q195.93 0.3 197.28-0.78 198.63-1.85 200.05-3.53 201.48-5.2 202.78-7 204.08-8.8 205.08-10.3L205.08-10.3Q205.28-10.6 205.33-10.6L205.33-10.6Q205.63-10.55 206.1-10.4 206.58-10.25 206.93-10 207.28-9.75 207.28-9.35L207.28-9.35Q207.28-8.9 206.83-8.13 206.38-7.35 205.83-6.35 205.28-5.35 204.83-4.33 204.38-3.3 204.38-2.4L204.38-2.4Q204.38-1.65 204.78-0.93 205.18-0.2 206.08-0.2L206.08-0.2Q207.43-0.2 209.63-2.18 211.83-4.15 214.08-8.1L214.08-8.1 214.58-7.6Q213.53-4.9 211.88-2.85 210.23-0.8 208.35 0.35 206.48 1.5 204.68 1.5L204.68 1.5Q202.83 1.5 201.95 0.4 201.08-0.7 201.08-2L201.08-2Q201.08-2.3 201.13-2.68 201.18-3.05 201.23-3.45L201.23-3.45Q199.08-0.55 197.3 0.9 195.53 2.35 193.68 2.35Z" opacity="1" transform="matrix(1,0,0,1,0,0)" fill="#000000" class="wordmark-text-0" data-fill-palette-color="primary" id="text-0"></path></svg></g></svg></g></svg></g></svg></g><g><svg viewBox="0 0 124.49245825763873 126.85278254815502" height="126.85278254815502" width="124.49245825763873"><g><svg xmlns="http://www.w3.org/2000/svg" xmlns:xlink="http://www.w3.org/1999/xlink" version="1.1" x="0" y="0" viewBox="6.288265705108643 5.460000038146973 87.42250061035156 89.07999420166016" enable-background="new 0 0 100 100" xml:space="preserve" height="126.85278254815502" width="124.49245825763873" class="icon-icon-0" data-fill-palette-color="accent" id="icon-0"><path d="M93.067 85.408l-2.709-5.362c-1.244-2.475-4.163-4.274-6.939-4.274h-1.417c-5.188-9.652-13.489-11.799-16.457-12.236v-2.08h13.517c3.473 0 6.3-2.825 6.3-6.298V11.759c0-3.473-2.827-6.299-6.3-6.299H24.704c-3.473 0-6.298 2.826-6.298 6.299v43.398c0 3.473 2.825 6.298 6.298 6.298h13.517v2.334c-3.648 0.826-10.585 3.521-15.133 11.982H17.84c-2.703 0-5.626 1.708-6.952 4.062l-3.827 6.778c-0.995 1.765-1.031 3.772-0.097 5.374 0.934 1.599 2.701 2.555 4.727 2.555H66.05c2.023 0 3.792-0.956 4.726-2.555 0.935-1.602 0.898-3.609-0.097-5.372l-3.826-6.782c-1.326-2.352-4.251-4.06-6.952-4.06H27.662c2.403-3.626 5.264-5.67 7.735-6.856 1.11-0.527 2.132-0.875 2.989-1.107 0.634 2.804 3.139 4.911 6.133 4.911h14.727c3.097 0 5.664-2.25 6.188-5.2 2.419 0.452 8.009 2.098 12.117 8.421-1.358 0.324-2.503 1.11-3.248 2.27-0.998 1.549-1.099 3.473-0.279 5.278l2.406 5.284c1.17 2.579 4.082 4.456 6.923 4.456h4.901c1.986 0 3.748-0.933 4.708-2.493C93.923 89.174 93.96 87.184 93.067 85.408zM59.9 79.708c1.298 0 2.885 0.927 3.521 2.059l3.827 6.78c0.639 1.132 0.099 2.057-1.199 2.057H11.691c-1.298 0-1.839-0.925-1.201-2.057l3.827-6.78c0.639-1.132 2.226-2.059 3.523-2.059H59.9zM61.608 66.421c0 1.298-1.063 2.359-2.362 2.359H44.519c-1.298 0-2.362-1.062-2.362-2.359v-4.966h19.451V66.421zM24.704 57.519c-1.298 0-2.361-1.062-2.361-2.361V11.759c0-1.3 1.063-2.361 2.361-2.361h54.358c1.298 0 2.361 1.062 2.361 2.361v43.398c0 1.3-1.063 2.361-2.361 2.361H24.704zM88.254 89.289h-4.901c-1.299 0-2.803-0.967-3.341-2.15l-2.403-5.28c-0.536-1.182 0.087-2.15 1.385-2.15h4.426c1.298 0 2.841 0.949 3.426 2.111l2.707 5.362C90.137 88.342 89.554 89.289 88.254 89.289zM72.13 14.408H31.634c-3.473 0-6.298 2.825-6.298 6.299v24.955c0 3.473 2.825 6.299 6.298 6.299H72.13c3.473 0 6.299-2.826 6.299-6.299V20.707C78.429 17.233 75.603 14.408 72.13 14.408zM74.491 45.662c0 1.3-1.062 2.361-2.361 2.361H31.634c-1.298 0-2.361-1.062-2.361-2.361V20.707c0-1.3 1.063-2.362 2.361-2.362H72.13c1.299 0 2.361 1.062 2.361 2.362V45.662zM22.687 88.791h32.369c1.087 0 1.969-0.882 1.969-1.967 0-1.092-0.882-1.97-1.969-1.97H22.687c-1.092 0-1.97 0.878-1.97 1.97C20.716 87.909 21.595 88.791 22.687 88.791z" fill="#000000" data-fill-palette-color="accent"></path></svg></g></svg></g></svg></g><defs></defs></svg><rect width="395.52" height="92.62415952246559" fill="none" stroke="none" visibility="hidden"></rect></g></svg></g></svg>